# Made in Blockbench 4.12.3

o cube
v -0.8971709744644883 0.3096243750000006 0.16033822193196146
v -0.8971709744644882 0.3096243750000006 -0.13966177806803926
v 0.16532902553551165 0.3096243750000006 0.16033822193196157
v 0.16532902553551165 0.3096243750000006 -0.13966177806803903
v -0.8971709744644883 0.009624375000000601 -0.13966177806803926
v -0.8971709744644883 0.009624375000000601 0.16033822193196146
v 0.16532902553551165 0.009624375000000573 -0.13966177806803903
v 0.16532902553551165 0.009624375000000573 0.16033822193196157
vt 0 1
vt 0.3 1
vt 0.3 0
vt 0 0
vt 0 1
vt 0.3 1
vt 0.3 0
vt 0 0
vt 0 1
vt 0.3 1
vt 0.3 0
vt 0 0
vt 0 1
vt 0.3 1
vt 0.3 0
vt 0 0
vt 0 1
vt 1 1
vt 1 0
vt 0 0
vt 0 1
vt 0.3 1
vt 0.3 0.7
vt 0 0.7
vn 0 0 -1
vn 0 1 0
vn 0 0 1
vn 0 -1 0
vn -1 0 0
vn 1 0 0
g Side
f 4/4/1 7/3/1 5/2/1 2/1/1
f 3/8/2 4/7/2 2/6/2 1/5/2
f 8/12/3 3/11/3 1/10/3 6/9/3
f 7/16/4 8/15/4 6/14/4 5/13/4
g Top
f 6/20/5 1/19/5 2/18/5 5/17/5
g Side
f 7/24/6 4/23/6 3/22/6 8/21/6
o cube
v 0.16532902553551188 0.2939993750000006 0.14471322193196157
v 0.16532902553551188 0.2939993750000006 -0.12403677806803903
v 1.227829025535512 0.29399937500000056 0.1447132219319618
v 1.227829025535512 0.29399937500000056 -0.12403677806803887
v 0.16532902553551188 0.025249375000000573 -0.12403677806803903
v 0.16532902553551188 0.025249375000000573 0.14471322193196157
v 1.227829025535512 0.025249375000000546 -0.12403677806803887
v 1.227829025535512 0.025249375000000546 0.1447132219319618
vt 0 1
vt 0.26875 1
vt 0.26875 0
vt 0 0
vt 0 1
vt 0.26875 1
vt 0.26875 0
vt 0 0
vt 0 1
vt 0.26875 1
vt 0.26875 0
vt 0 0
vt 0 1
vt 0.26875 1
vt 0.26875 0
vt 0 0
vt 0 1
vt 0.26875 1
vt 0.26875 0.73125
vt 0 0.73125
vt 0 1
vt 1 1
vt 1 0
vt 0 0
vn 0 0 -1
vn 0 1 0
vn 0 0 1
vn 0 -1 0
vn -1 0 0
vn 1 0 0
g Side
f 12/28/7 15/27/7 13/26/7 10/25/7
f 11/32/8 12/31/8 10/30/8 9/29/8
f 16/36/9 11/35/9 9/34/9 14/33/9
f 15/40/10 16/39/10 14/38/10 13/37/10
f 14/44/11 9/43/11 10/42/11 13/41/11
g Top
f 15/48/12 12/47/12 11/46/12 16/45/12
