# Made in Blockbench 4.12.3

o cube
v -1.1471709744644885 0.3096243750000006 0.09783822193196146
v -1.1471709744644885 0.3096243750000006 -0.20216177806803926
v -0.08467097446448846 0.3096243750000006 0.09783822193196157
v -0.08467097446448846 0.3096243750000006 -0.20216177806803903
v -1.1471709744644885 0.009624375000000601 -0.20216177806803926
v -1.1471709744644885 0.009624375000000601 0.09783822193196146
v -0.08467097446448846 0.009624375000000573 -0.20216177806803903
v -0.08467097446448846 0.009624375000000573 0.09783822193196157
vt 0 1
vt 0.3 1
vt 0.3 0
vt 0 0
vt 0 1
vt 0.3 1
vt 0.3 0
vt 0 0
vt 0 1
vt 0.3 1
vt 0.3 0
vt 0 0
vt 0 1
vt 0.3 1
vt 0.3 0
vt 0 0
vt 0 1
vt 1 1
vt 1 0
vt 0 0
vt 0 1
vt 0.3 1
vt 0.3 0.7
vt 0 0.7
vn 0 0 -1
vn 0 1 0
vn 0 0 1
vn 0 -1 0
vn -1 0 0
vn 1 0 0
g Side
f 4/4/1 7/3/1 5/2/1 2/1/1
f 3/8/2 4/7/2 2/6/2 1/5/2
f 8/12/3 3/11/3 1/10/3 6/9/3
f 7/16/4 8/15/4 6/14/4 5/13/4
g Top
f 6/20/5 1/19/5 2/18/5 5/17/5
g Side
f 7/24/6 4/23/6 3/22/6 8/21/6
o cube
v -0.2721712848752843 0.2783743750000005 -0.02716164283226341
v -0.10423342434347876 0.27837437500000045 -0.195099503364069
v 0.4791296701354224 0.2783743750000003 0.7241393121784432
v 0.6470675306672279 0.27837437500000023 0.5562014516466378
v -0.10423342434347882 0.04087437500000071 -0.195099503364069
v -0.27217128487528436 0.04087437500000077 -0.02716164283226341
v 0.6470675306672279 0.04087437500000049 0.5562014516466378
v 0.4791296701354224 0.040874375000000546 0.7241393121784432
vt 0 1
vt 0.2375 1
vt 0.2375 0
vt 0 0
vt 0 1
vt 0.2375 1
vt 0.2375 0
vt 0 0
vt 0 1
vt 0.2375 1
vt 0.2375 0
vt 0 0
vt 0 1
vt 0.2375 1
vt 0.2375 0
vt 0 0
vt 0 1
vt 0.2375 1
vt 0.2375 0.7625
vt 0 0.7625
vt 0 1
vt 0.2375 1
vt 0.2375 0.7625
vt 0 0.7625
vn 0.7071067811865476 0 -0.7071067811865476
vn 0 1 0
vn -0.7071067811865476 0 0.7071067811865476
vn 0 -1 0
vn -0.7071067811865475 0 -0.7071067811865476
vn 0.7071067811865475 0 0.7071067811865476
g Side
f 12/28/7 15/27/7 13/26/7 10/25/7
f 11/32/8 12/31/8 10/30/8 9/29/8
f 16/36/9 11/35/9 9/34/9 14/33/9
f 15/40/10 16/39/10 14/38/10 13/37/10
f 14/44/11 9/43/11 10/42/11 13/41/11
f 15/48/12 12/47/12 11/46/12 16/45/12
o cube
v 0.47912966474538665 0.2627493750000004 0.7085143582642197
v 0.47912966474538665 0.2627493750000004 0.502264358264219
v 1.5416296647453867 0.26274937500000034 0.7085143582642199
v 1.5416296647453867 0.26274937500000034 0.5022643582642192
v 0.47912966474538665 0.05649937500000035 0.502264358264219
v 0.47912966474538665 0.05649937500000035 0.7085143582642197
v 1.5416296647453867 0.056499375000000324 0.5022643582642192
v 1.5416296647453867 0.056499375000000324 0.7085143582642199
vt 0 1
vt 0.20625 1
vt 0.20625 0
vt 0 0
vt 0 1
vt 0.20625 1
vt 0.20625 0
vt 0 0
vt 0 1
vt 0.20625 1
vt 0.20625 0
vt 0 0
vt 0 1
vt 0.20625 1
vt 0.20625 0
vt 0 0
vt 0 1
vt 0.20625 1
vt 0.20625 0.79375
vt 0 0.79375
vt 0 1
vt 1 1
vt 1 0
vt 0 0
vn 0 0 -1
vn 0 1 0
vn 0 0 1
vn 0 -1 0
vn -1 0 0
vn 1 0 0
g Side
f 20/52/13 23/51/13 21/50/13 18/49/13
f 19/56/14 20/55/14 18/54/14 17/53/14
f 24/60/15 19/59/15 17/58/15 22/57/15
f 23/64/16 24/63/16 22/62/16 21/61/16
f 22/68/17 17/67/17 18/66/17 21/65/17
g Top
f 23/72/18 20/71/18 19/70/18 24/69/18
o cube
v -0.016556029708824582 0.25653765170953247 0.140065264685878
v 0.06299348317466252 0.25653765170953247 0.06051575180239088
v 0.13969397029117542 0.4775085208303286 0.296315264685878
v 0.21924348317466252 0.4775085208303286 0.21676575180239088
v 0.11924348317466255 0.17698813882604586 0.1167657518023908
v 0.03969397029117544 0.1769881388260459 0.1963152646858779
v 0.2754934831746626 0.39795900794684197 0.2730157518023908
v 0.19594397029117544 0.397959007946842 0.3525652646858779
vt 0 1
vt 0.1125 1
vt 0.1125 0.6875
vt 0 0.6875
vt 0 1
vt 0.1125 1
vt 0.1125 0.6875
vt 0 0.6875
vt 0 1
vt 0.1125 1
vt 0.1125 0.6875
vt 0 0.6875
vt 0 1
vt 0.1125 1
vt 0.1125 0.6875
vt 0 0.6875
vt 0 1
vt 0.1125 1
vt 0.1125 0.8875
vt 0 0.8875
vt 0 1
vt 0.1125 1
vt 0.1125 0.8875
vt 0 0.8875
vn 0.7071067811865477 0 -0.7071067811865476
vn -0.49999999999999983 0.7071067811865477 -0.5
vn -0.7071067811865477 0 0.7071067811865476
vn 0.49999999999999983 -0.7071067811865477 0.5
vn -0.5 -0.7071067811865475 -0.5
vn 0.5 0.7071067811865475 0.5
g Side
f 28/76/19 31/75/19 29/74/19 26/73/19
f 27/80/20 28/79/20 26/78/20 25/77/20
f 32/84/21 27/83/21 25/82/21 30/81/21
f 31/88/22 32/87/22 30/86/22 29/85/22
f 30/92/23 25/91/23 26/90/23 29/89/23
f 31/96/24 28/95/24 27/94/24 32/93/24
o cube
v 0.4094170944954143 0.23149937500000026 0.3455430092370767
v 0.2967219512438078 0.23149937500000028 0.2328478659854702
v 0.8071646589128473 0.23149937500000026 -0.05220455518035627
v 0.6944695156612408 0.23149937500000028 -0.16489969843196278
v 0.2967219512438078 0.07212437500000027 0.2328478659854702
v 0.4094170944954143 0.07212437500000021 0.3455430092370767
v 0.6944695156612408 0.07212437500000027 -0.16489969843196278
v 0.8071646589128473 0.07212437500000021 -0.05220455518035627
vt 0 1
vt 0.159375 1
vt 0.159375 0.4375
vt 0 0.4375
vt 0 1
vt 0.14375 1
vt 0.14375 0.4375
vt 0 0.4375
vt 0 1
vt 0.159375 1
vt 0.159375 0.4375
vt 0 0.4375
vt 0 1
vt 0.14375 1
vt 0.14375 0.4375
vt 0 0.4375
vt 0 1
vt 0.159375 1
vt 0.159375 0.85625
vt 0 0.85625
vt 0 1
vt 1 1
vt 1 0
vt 0 0
vn -0.7071067811865475 0 -0.7071067811865477
vn 0 1 0
vn 0.7071067811865475 0 0.7071067811865477
vn 0 -1 0
vn -0.7071067811865476 0 0.7071067811865475
vn 0.7071067811865476 0 -0.7071067811865475
g Side
f 36/100/25 39/99/25 37/98/25 34/97/25
f 35/104/26 36/103/26 34/102/26 33/101/26
f 40/108/27 35/107/27 33/106/27 38/105/27
f 39/112/28 40/111/28 38/110/28 37/109/28
f 38/116/29 33/115/29 34/114/29 37/113/29
g Top
f 39/120/30 36/119/30 35/118/30 40/117/30
