# Made in Blockbench 4.12.3

o cube
v -0.5377959744644883 0.18462437500000062 0.19158822193196146
v -0.5377959744644882 0.18462437500000062 -0.17091177806803914
v 0.46220402553551154 0.18462437500000062 0.19158822193196168
v 0.46220402553551176 0.18462437500000062 -0.17091177806803898
v -0.5377959744644883 0.009624375000000601 -0.17091177806803914
v -0.5377959744644883 0.009624375000000601 0.19158822193196146
v 0.46220402553551176 0.009624375000000573 -0.17091177806803898
v 0.46220402553551154 0.009624375000000573 0.19158822193196168
vt 0 1
vt 0.2375 1
vt 0.2375 0
vt 0 0
vt 0.0625 0.9375
vt 0.425 0.9375
vt 0.425 0.0625
vt 0.0625 0.0625
vt 0 1
vt 0.2375 1
vt 0.2375 0
vt 0 0
vt 0 1
vt 0.425 1
vt 0.425 0
vt 0 0
vt 0 1
vt 0.5 1
vt 0.5 0
vt 0 0
vt 0 1
vt 0.5 1
vt 0.5 0
vt 0 0
vn 0 0 -1
vn 0 1 0
vn 0 0 1
vn 0 -1 0
vn -1 0 0
vn 1 0 0
g Side
f 4/4/1 7/3/1 5/2/1 2/1/1
g Top
f 3/8/2 4/7/2 2/6/2 1/5/2
g Side
f 8/12/3 3/11/3 1/10/3 6/9/3
f 7/16/4 8/15/4 6/14/4 5/13/4
g Top
f 6/20/5 1/19/5 2/18/5 5/17/5
f 7/24/6 4/23/6 3/22/6 8/21/6
o cube
v -0.41279597446448835 0.3564993750000006 0.19158822193196146
v -0.41279597446448835 0.3564993750000006 0.0165882219319608
v 0.5247040255355115 0.35649937500000056 0.19158822193196168
v 0.5247040255355118 0.35649937500000056 0.016588221931960967
v -0.41279597446448835 0.18149937500000057 0.0165882219319608
v -0.41279597446448835 0.18149937500000057 0.19158822193196146
v 0.5247040255355118 0.18149937500000057 0.016588221931960967
v 0.5247040255355115 0.18149937500000057 0.19158822193196168
vt 0 0.9375
vt 0.2375 0.9375
vt 0.2375 0.0625
vt 0 0.0625
vt 0 0.875
vt 0.2375 0.875
vt 0.2375 0
vt 0 0
vt 0 0.875
vt 0.2375 0.875
vt 0.2375 0
vt 0 0
vt 0 0.875
vt 0.2375 0.875
vt 0.2375 0
vt 0 0
vt 0.5 0.5625
vt 1 0.5625
vt 1 0
vt 0.5 0
vt 0.5 1
vt 1 1
vt 1 0.4375
vt 0.5 0.4375
vn 0 0 -1
vn 0 1 0
vn 0 0 1
vn 0 -1 0
vn -1 0 0
vn 1 0 0
g Top
f 12/28/7 15/27/7 13/26/7 10/25/7
g Side
f 11/32/8 12/31/8 10/30/8 9/29/8
f 16/36/9 11/35/9 9/34/9 14/33/9
f 15/40/10 16/39/10 14/38/10 13/37/10
g Top
f 14/44/11 9/43/11 10/42/11 13/41/11
f 15/48/12 12/47/12 11/46/12 16/45/12
o cube
v -0.10029597446448835 0.2939993750000006 -0.058411778068038434
v -0.10029597446448824 0.2939993750000006 -0.1709117780680391
v 0.39970402553551176 0.2939993750000006 -0.05841177806803838
v 0.39970402553551176 0.29399937500000056 -0.17091177806803903
v -0.10029597446448824 0.18149937500000057 -0.1709117780680391
v -0.10029597446448835 0.18149937500000057 -0.058411778068038434
v 0.39970402553551176 0.18149937500000057 -0.17091177806803903
v 0.39970402553551176 0.18149937500000057 -0.05841177806803838
vt 0 0.6875
vt 0.1125 0.6875
vt 0.1125 0
vt 0 0
vt 0.125 0.75
vt 0.2375 0.75
vt 0.2375 0.0625
vt 0.125 0.0625
vt 0.8125 0.75
vt 0.925 0.75
vt 0.925 0.0625
vt 0.8125 0.0625
vt 0 0.6875
vt 0.1125 0.6875
vt 0.1125 0
vt 0 0
vt 0.5625 1
vt 0.9375 1
vt 0.9375 0.625
vt 0.5625 0.625
vt 0.5625 0.25
vt 0.9375 0.25
vt 0.9375 0
vt 0.5625 0
vn 0 0 -1
vn 0 1 0
vn 0 0 1
vn 0 -1 0
vn -1 0 0
vn 1 0 0
g Side
f 20/52/13 23/51/13 21/50/13 18/49/13
g Top
f 19/56/14 20/55/14 18/54/14 17/53/14
f 24/60/15 19/59/15 17/58/15 22/57/15
g Side
f 23/64/16 24/63/16 22/62/16 21/61/16
g Top
f 22/68/17 17/67/17 18/66/17 21/65/17
f 23/72/18 20/71/18 19/70/18 24/69/18
